<?xml version="1.0" standalone="no"?>
<!DOCTYPE svg PUBLIC "-//W3C//DTD SVG 20010904//EN"
 "http://www.w3.org/TR/2001/REC-SVG-20010904/DTD/svg10.dtd">
<svg version="1.0" xmlns="http://www.w3.org/2000/svg"
 width="332.000000pt" height="332.000000pt" viewBox="0 0 332.000000 332.000000"
 preserveAspectRatio="xMidYMid meet">
<metadata>
Created by potrace 1.14, written by Peter Selinger 2001-2017
</metadata>
<g transform="translate(0.000000,332.000000) scale(0.100000,-0.100000)"
fill="#000000" stroke="none">
<path d="M1623 3005 c-36 -19 -206 -117 -248 -142 -11 -7 -30 -17 -42 -22 -11
-5 -24 -15 -28 -21 -3 -5 -11 -8 -16 -5 -5 4 -9 2 -9 -3 0 -5 -8 -12 -17 -16
-10 -3 -36 -17 -58 -31 -22 -14 -50 -30 -63 -35 -13 -6 -38 -21 -56 -35 -18
-14 -36 -22 -39 -18 -4 3 -7 2 -7 -3 0 -6 -16 -16 -35 -24 -19 -8 -35 -17 -35
-22 0 -4 -7 -8 -15 -8 -8 0 -15 -5 -15 -11 0 -5 -4 -7 -10 -4 -5 3 -10 2 -10
-3 0 -6 -11 -13 -25 -16 -14 -4 -25 -10 -25 -15 0 -5 -13 -12 -29 -16 -16 -3
-37 -15 -46 -25 -10 -11 -22 -17 -26 -14 -5 3 -12 -2 -15 -10 -3 -9 -10 -13
-15 -10 -5 3 -9 2 -9 -3 0 -4 -15 -14 -32 -22 -18 -8 -35 -17 -38 -21 -4 -6
-23 -16 -97 -54 -19 -10 -95 -126 -92 -142 0 -4 -5 -10 -12 -15 -16 -10 -20
-1292 -4 -1324 60 -116 108 -175 141 -175 8 0 14 -4 14 -10 0 -5 11 -12 25
-16 14 -3 25 -10 25 -15 0 -5 6 -9 14 -9 8 0 21 -6 28 -13 7 -6 31 -21 53 -32
22 -11 41 -23 43 -27 2 -5 9 -8 17 -8 7 0 18 -7 25 -15 7 -8 16 -12 21 -9 5 3
9 0 9 -5 0 -6 7 -11 15 -11 8 0 15 -4 15 -10 0 -5 9 -10 20 -10 11 0 20 -4 20
-8 0 -4 25 -20 55 -36 30 -15 55 -32 55 -37 0 -6 4 -8 8 -5 5 3 21 -4 38 -15
16 -11 38 -24 49 -30 11 -5 34 -18 50 -28 17 -10 47 -28 67 -39 139 -79 254
-148 259 -155 3 -5 9 -8 13 -8 3 1 32 -13 64 -31 53 -30 64 -33 151 -33 l93
-1 87 49 c47 27 97 56 111 65 14 9 28 15 33 14 4 -1 7 1 7 6 0 4 15 13 33 21
17 8 34 17 37 21 9 11 148 90 159 90 6 0 11 4 11 9 0 5 8 11 18 14 17 6 93 48
102 57 3 3 14 10 25 16 56 30 117 65 185 106 41 24 82 47 90 51 8 4 33 18 55
32 22 14 50 30 63 35 12 5 28 15 35 20 6 6 27 20 46 31 18 11 35 29 38 40 3
10 10 19 15 19 5 0 6 5 3 10 -3 6 -1 10 4 10 6 0 11 5 11 11 0 6 10 25 22 41
21 31 22 37 22 440 1 225 -2 416 -5 426 -6 16 -7 16 -14 0 -4 -10 -13 -18 -21
-18 -7 0 -20 -10 -28 -22 -9 -12 -16 -18 -16 -13 0 6 -6 3 -13 -6 -7 -9 -39
-38 -72 -64 -33 -27 -62 -52 -63 -57 -2 -4 -8 -6 -13 -2 -5 3 -9 0 -9 -6 0 -6
-11 -15 -25 -22 -13 -6 -22 -15 -19 -19 3 -5 1 -9 -5 -9 -22 0 -68 -50 -67
-72 1 -13 -2 -28 -6 -35 -5 -6 -5 -14 1 -17 6 -4 6 -18 1 -36 -5 -17 -6 -30
-2 -30 4 0 7 -16 7 -35 0 -19 -4 -35 -8 -35 -4 0 -4 -8 2 -17 5 -10 5 -26 0
-40 -4 -12 -5 -24 -1 -27 9 -5 8 -73 -1 -82 -3 -4 -2 -14 2 -23 6 -11 4 -23
-5 -36 -8 -10 -14 -15 -14 -9 0 5 -4 4 -8 -1 -8 -13 -201 -125 -213 -125 -5 0
-9 -5 -9 -10 0 -6 -3 -9 -7 -8 -10 3 -156 -82 -165 -96 -4 -6 -8 -8 -8 -4 0 4
-33 -12 -72 -36 -40 -23 -93 -54 -118 -68 -25 -14 -90 -52 -145 -84 -163 -94
-165 -95 -200 -76 -16 10 -31 20 -33 25 -2 4 -8 7 -13 7 -5 0 -79 41 -164 90
-85 50 -159 90 -165 90 -5 0 -10 5 -10 10 0 6 -5 10 -10 10 -6 0 -28 11 -49
24 -21 14 -42 22 -45 19 -3 -4 -6 -1 -6 6 0 6 -11 16 -25 21 -13 5 -41 20 -62
33 -21 13 -58 35 -83 49 -105 59 -126 71 -151 89 -14 10 -29 16 -33 12 -3 -3
-6 -1 -6 5 0 7 -7 12 -15 12 -9 0 -19 9 -23 19 -5 15 -8 920 -3 1051 1 18 12
31 41 48 22 12 42 22 45 22 3 0 13 6 21 15 9 8 19 13 24 10 5 -3 10 -1 12 4 3
10 47 37 118 73 25 13 47 26 50 29 3 4 24 17 48 30 23 13 59 34 80 47 20 12
45 25 55 28 9 4 17 11 17 16 0 5 4 7 9 3 5 -3 13 0 16 6 4 6 14 13 24 17 38
16 171 94 171 101 0 4 6 8 13 8 13 0 139 73 148 86 11 16 47 11 93 -13 25 -14
46 -28 46 -32 0 -5 9 -8 19 -8 11 0 21 -4 23 -8 2 -4 50 -34 108 -67 58 -33
111 -65 118 -72 8 -7 17 -11 21 -9 4 3 20 -6 35 -19 16 -14 33 -22 37 -19 5 3
9 0 9 -5 0 -6 7 -11 15 -11 8 0 15 -3 15 -8 0 -4 15 -13 33 -21 17 -8 42 -23
55 -35 13 -12 27 -20 30 -20 13 2 52 -19 52 -28 0 -5 4 -7 9 -3 5 3 16 -2 24
-10 9 -8 23 -15 32 -15 9 0 13 -4 10 -10 -3 -5 0 -10 8 -10 40 0 19 -31 -65
-96 -50 -38 -96 -74 -102 -79 -6 -6 -45 -37 -86 -70 -95 -76 -109 -87 -126
-103 -8 -7 -14 -11 -14 -8 0 3 -11 -5 -23 -17 -13 -12 -39 -34 -58 -49 -129
-102 -196 -154 -205 -163 -61 -55 -114 -85 -114 -64 0 5 -6 9 -13 9 -17 0 -80
30 -88 43 -3 5 -9 8 -13 7 -10 -1 -260 124 -268 135 -4 5 -8 7 -8 3 0 -5 -26
5 -57 21 -31 16 -60 28 -63 26 -8 -5 -5 -379 4 -393 4 -6 24 -19 44 -29 20 -9
40 -22 44 -27 4 -6 8 -8 8 -3 0 4 17 -3 38 -15 20 -13 55 -32 77 -43 22 -10
51 -27 65 -36 14 -9 28 -17 33 -18 4 0 37 -17 73 -37 66 -37 88 -41 174 -31
25 3 59 6 76 6 18 1 41 11 55 24 13 13 42 36 64 53 22 16 42 31 45 34 3 3 25
21 50 40 51 39 74 58 98 83 9 9 22 17 28 17 6 0 17 7 24 15 7 8 71 60 144 116
72 56 136 108 142 115 6 8 14 14 17 14 7 0 23 12 80 62 18 15 38 28 46 28 8 0
12 3 8 6 -5 6 76 73 142 116 14 10 31 23 36 30 12 16 92 78 99 78 6 0 50 38
104 90 l37 35 0 95 -1 95 -54 32 c-30 18 -63 39 -73 45 -10 7 -22 13 -27 13
-5 0 -19 8 -30 18 -11 9 -25 17 -30 17 -6 0 -10 5 -10 11 0 5 -4 8 -8 5 -5 -3
-20 3 -33 12 -34 24 -101 62 -121 69 -10 3 -18 9 -18 14 0 5 -7 9 -15 9 -8 0
-15 5 -15 11 0 5 -4 7 -10 4 -5 -3 -20 3 -32 14 -12 12 -28 21 -35 21 -7 0
-13 5 -13 12 0 6 -3 8 -6 5 -4 -3 -18 3 -32 13 -13 11 -31 20 -38 20 -8 0 -14
4 -14 9 0 5 -8 11 -17 15 -10 3 -31 14 -48 23 -66 40 -152 89 -187 108 -21 11
-38 23 -38 27 0 5 -9 8 -20 8 -11 0 -20 4 -20 10 0 5 -11 12 -25 16 -14 3 -25
9 -25 13 0 3 -23 17 -50 30 -28 14 -50 29 -50 34 0 4 -4 5 -10 2 -5 -3 -10 -2
-10 2 0 5 -24 19 -52 33 -72 34 -207 37 -265 5z"/>
</g>
</svg>
